#!OML:ASF I:\Actors\actors\Patient Classification 2\Patient 1\Session 1\actor1.ASF
:FULLY-SPECIFIED
:DEGREES
660
root -1.04194 18.1066 5.95452 0.283544 -3.0537 -6.01873
lowerback 3.02885 1.47837 3.41218
upperback 0.260787 2.10406 1.27338
thorax -1.35494 1.03417 -0.69049
lowerneck -14.6747 -2.36169 1.00546
upperneck 20.705 -3.83869 1.31971
head 8.91489 -1.57984 -0.176231
rclavicle -3.5657e-015 5.1684e-015
rhumerus -48.0698 -1.95347 -88.2181
rradius 43.9503
rwrist 10.0772
rhand -4.47689 -30.4175
rfingers 7.12502
rthumb 21.2959 -59.2675
lclavicle -3.5657e-015 5.1684e-015
lhumerus -40.4561 2.75489 87.1656
lradius 37.8181
lwrist -6.2847
lhand -9.28309 -26.574
lfingers 7.12502
lthumb 16.6739 2.72984
rfemur 9.42447 -9.01708 21.3018
rtibia 3.18055e-015
rfoot -12.9445 -3.87467
rtoes 10.2382
lfemur 19.8472 -8.21787 -11.7028
ltibia -21.3193
lfoot -3.20633 20.2172
ltoes -2.10563
661
root -1.03895 18.1098 5.94454 0.309629 -2.97153 -5.97853
lowerback 3.07798 1.50603 3.34417
upperback 0.224795 2.14218 1.28138
thorax -1.42084 1.05233 -0.647983
lowerneck -14.6591 -2.38218 0.971329
upperneck 20.782 -3.87356 1.37567
head 8.94058 -1.59159 -0.156132
rclavicle -1.92573e-015 6.75868e-015
rhumerus -48.0434 -1.88122 -88.125
rradius 43.9633
rwrist 10.1049
rhand -5.57881 -30.207
rfingers 7.12502
rthumb 20.2372 -59.1727
lclavicle -1.92573e-015 6.75868e-015
lhumerus -40.3273 2.68502 87.1571
lradius 37.9565
lwrist -6.08227
lhand -9.39881 -26.5276
lfingers 7.12502
lthumb 16.5625 2.78559
rfemur 9.36017 -9.09857 21.2638
rtibia 1.90833e-014
rfoot -12.9277 -3.89347
rtoes 10.5982
lfemur 19.7391 -8.32254 -11.7422
ltibia -21.2673
lfoot -3.22619 20.2089
ltoes -1.95794
662
root -1.03641 18.1125 5.93507 0.349667 -2.91005 -5.92527
lowerback 3.11539 1.52472 3.29067
upperback 0.168748 2.16859 1.27279
thorax -1.50009 1.06418 -0.630163
lowerneck -14.6516 -2.37817 0.848505
upperneck 20.8949 -3.87275 1.51236
head 8.98372 -1.5842 -0.0900685
rclavicle -5.31749e-015 -1.31198e-014
rhumerus -48.0053 -1.85172 -88.008
rradius 43.8955
rwrist 10.1678
rhand -6.57907 -29.7419
rfingers 7.12502
rthumb 19.2756 -58.8066
lclavicle -5.31749e-015 -1.31198e-014
lhumerus -40.2656 2.6447 87.1001
lradius 38.0142
lwrist -5.75606
lhand -9.59211 -27.0111
lfingers 7.12502
lthumb 16.3764 2.31749
rfemur 9.2855 -9.15762 21.2074
rtibia -2.22639e-014
rfoot -12.9105 -3.87274
rtoes 10.9444
lfemur 19.6069 -8.29039 -11.7802
ltibia -21.203
lfoot -3.19209 20.1128
ltoes -1.96505
663
root -1.03384 18.1148 5.92839 0.378708 -2.88734 -5.87013
lowerback 3.07955 1.54228 3.22636
upperback 0.159629 2.18841 1.27114
thorax -1.49101 1.07459 -0.595843
lowerneck -14.703 -2.36878 0.746785
upperneck 20.976 -3.86638 1.63436
head 9.02607 -1.57416 -0.0322895
rclavicle -4.37326e-015 -1.78906e-015
rhumerus -47.8785 -1.84185 -87.8614
rradius 43.7701
rwrist 10.2227
rhand -6.53811 -29.5676
rfingers 7.12502
rthumb 19.315 -58.6284
lclavicle -4.37326e-015 -1.78906e-015
lhumerus -40.1117 2.81933 86.972
lradius 37.8654
lwrist -5.46035
lhand -9.76875 -27.9396
lfingers 7.12502
lthumb 16.2063 1.403
rfemur 9.2333 -9.17749 21.1438
rtibia -6.36111e-015
rfoot -12.8903 -3.89056
rtoes 10.7464
lfemur 19.515 -8.29958 -11.8425
ltibia -21.1532
lfoot -3.1781 20.0979
ltoes -2.05575
664
root -1.0306 18.1166 5.92274 0.405898 -2.85648 -5.84054
lowerback 3.02251 1.5411 3.18485
upperback 0.167461 2.18271 1.27343
thorax -1.45281 1.07265 -0.56822
lowerneck -14.7975 -2.35032 0.703096
upperneck 21.0317 -3.85585 1.73125
head 9.06589 -1.56031 0.00752912
rclavicle -2.12575e-014 -9.74045e-015
rhumerus -47.7369 -1.81693 -87.7312
rradius 43.6938
rwrist 10.2449
rhand -6.53421 -29.4316
rfingers 7.12502
rthumb 19.3188 -58.492
lclavicle -2.12575e-014 -9.74045e-015
lhumerus -39.9288 3.01363 86.8764
lradius 37.8226
lwrist -5.21267
lhand -9.8784 -28.4012
lfingers 7.12502
lthumb 16.1007 0.949904
rfemur 9.18352 -9.20557 21.1058
rtibia 2.22639e-014
rfoot -12.8379 -3.90895
rtoes 10.7273
lfemur 19.4434 -8.38024 -11.8893
ltibia -21.1225
lfoot -3.17328 20.1452
ltoes -2.25166
665
root -1.02618 18.1176 5.91687 0.429177 -2.79717 -5.82926
lowerback 3.01986 1.51745 3.17898
upperback 0.13724 2.15176 1.27161
thorax -1.48352 1.05655 -0.566061
lowerneck -14.8418 -2.32591 0.66766
upperneck 21.0934 -3.83516 1.81346
head 9.09796 -1.54303 0.0429284
rclavicle -7.55382e-015 -9.34288e-015
rhumerus -47.6599 -1.74196 -87.6467
rradius 43.7145
rwrist 10.1553
rhand -5.48943 -29.7412
rfingers 7.12502
rthumb 20.3231 -58.6978
lclavicle -7.55382e-015 -9.34288e-015
lhumerus -39.8407 3.12583 86.8364
lradius 37.9394
lwrist -4.99773
lhand -9.97797 -28.4492
lfingers 7.12502
lthumb 16.0049 0.909675
rfemur 9.1347 -9.26203 21.0851
rtibia -2.8625e-014
rfoot -12.7899 -3.92105
rtoes 10.7188
lfemur 19.38 -8.46281 -11.9144
ltibia -21.1202
lfoot -3.13534 20.1895
ltoes -2.44755
666
root -1.02114 18.1181 5.91101 0.424798 -2.72896 -5.8292
lowerback 3.07397 1.49386 3.20741
upperback 0.0937158 2.12497 1.2679
thorax -1.55827 1.04153 -0.587066
lowerneck -14.8392 -2.33366 0.662635
upperneck 21.1441 -3.85223 1.83793
head 9.11585 -1.54796 0.0497562
rclavicle 2.41026e-015 1.78906e-015
rhumerus -47.5681 -1.68536 -87.5548
rradius 43.6776
rwrist 10.1277
rhand -5.14898 -30.2454
rfingers 7.12502
rthumb 20.6503 -59.1669
lclavicle 2.41026e-015 1.78906e-015
lhumerus -39.8232 3.1224 86.849
lradius 38.0995
lwrist -4.79564
lhand -10.0376 -28.4331
lfingers 7.12502
lthumb 15.9474 0.930422
rfemur 9.11933 -9.32791 21.0718
rtibia 7.95139e-015
rfoot -12.8127 -3.94834
rtoes 10.4037
lfemur 19.3517 -8.53589 -11.9269
ltibia -21.1458
lfoot -3.08617 20.2184
ltoes -2.3834
667
root -1.01742 18.1182 5.90514 0.405057 -2.63883 -5.85498
lowerback 3.13159 1.46874 3.25278
upperback 0.0692693 2.09651 1.27387
thorax -1.61525 1.02597 -0.607226
lowerneck -14.899 -2.36251 0.631457
upperneck 21.22 -3.89921 1.88428
head 9.15527 -1.56554 0.0637681
rclavicle -2.69726e-014 -1.80894e-014
rhumerus -47.3941 -1.73754 -87.3895
rradius 43.521
rwrist 10.2895
rhand -5.81959 -30.4697
rfingers 7.12502
rthumb 20.0058 -59.4599
lclavicle -2.69726e-014 -1.80894e-014
lhumerus -39.7863 3.00819 86.9206
lradius 38.2546
lwrist -4.59905
lhand -10.1211 -28.3186
lfingers 7.12502
lthumb 15.867 1.05127
rfemur 9.12872 -9.41618 21.084
rtibia -1.27222e-014
rfoot -12.8412 -3.95863
rtoes 10.3152
lfemur 19.3336 -8.53194 -11.8926
ltibia -21.1757
lfoot -3.00561 20.1407
ltoes -2.42362
668
root -1.01498 18.1194 5.8997 0.417311 -2.5689 -5.88912
lowerback 3.15322 1.45023 3.27065
upperback 0.0378299 2.07478 1.29281
thorax -1.6605 1.01411 -0.598054
lowerneck -14.9281 -2.37792 0.601357
upperneck 21.2481 -3.92464 1.9264
head 9.17222 -1.57446 0.079471
rclavicle 4.22417e-016 -1.39149e-015
rhumerus -47.212 -1.86543 -87.1888
rradius 43.3714
rwrist 10.473
rhand -5.08393 -30.5941
rfingers 7.12502
rthumb 20.7128 -59.5088
lclavicle 4.22417e-016 -1.39149e-015
lhumerus -39.7291 2.92126 87.0046
lradius 38.3212
lwrist -4.51573
lhand -10.2353 -28.2991
lfingers 7.12502
lthumb 15.757 1.07946
rfemur 9.09992 -9.48463 21.1144
rtibia 6.36111e-015
rfoot -12.8018 -3.97388
rtoes 10.238
lfemur 19.2868 -8.52955 -11.8463
ltibia -21.1931
lfoot -2.93493 20.0846
ltoes -2.80439
669
root -1.01225 18.1208 5.89433 0.44462 -2.50964 -5.87191
lowerback 3.16258 1.44184 3.25241
upperback -0.00146439 2.06439 1.28177
thorax -1.70671 1.00804 -0.599703
lowerneck -14.8324 -2.40801 0.632159
upperneck 21.141 -3.96991 1.92956
head 9.11724 -1.59551 0.0718027
rclavicle 6.95746e-016 2.14687e-014
rhumerus -47.0976 -2.01215 -87.0347
rradius 43.3246
rwrist 10.5079
rhand -5.27945 -30.2261
rfingers 7.12502
rthumb 20.5249 -59.1611
lclavicle 6.95746e-016 2.14687e-014
lhumerus -39.6744 2.75598 87.1141
lradius 38.3503
lwrist -4.40429
lhand -10.2509 -28.3316
lfingers 7.12502
lthumb 15.7421 1.04823
rfemur 9.0525 -9.54147 21.0912
rtibia -1.27222e-014
rfoot -12.7476 -3.9884
rtoes 10.0748
lfemur 19.2216 -8.57983 -11.8682
ltibia -21.1991
lfoot -2.85315 20.0848
ltoes -3.1625
670
root -1.00978 18.1217 5.88856 0.458011 -2.41708 -5.81435
lowerback 3.17752 1.42088 3.20492
upperback -0.0258228 2.03554 1.24861
thorax -1.7415 0.993219 -0.606804
lowerneck -14.7215 -2.44622 0.668088
upperneck 21.005 -4.03021 1.94909
head 9.04998 -1.6221 0.0674871
rclavicle -4.9634e-015 7.15625e-015
rhumerus -46.9995 -2.12765 -86.9229
rradius 43.3277
rwrist 10.42
rhand -6.4112 -29.762
rfingers 7.12502
rthumb 19.437 -58.8105
lclavicle -4.9634e-015 7.15625e-015
lhumerus -39.6093 2.54644 87.2453
lradius 38.3889
lwrist -4.23271
lhand -10.2214 -28.2719
lfingers 7.12502
lthumb 15.7705 1.10559
rfemur 9.02682 -9.63088 21.0201
rtibia 3.18055e-014
rfoot -12.7281 -4.00203
rtoes 9.81451
lfemur 19.1521 -8.56911 -11.9226
ltibia -21.2004
lfoot -2.71642 19.9811
ltoes -3.19643
671
root -1.00763 18.123 5.88336 0.470883 -2.34552 -5.78091
lowerback 3.17279 1.40081 3.16945
upperback -0.0309498 2.0072 1.23519
thorax -1.74577 0.979241 -0.5995
lowerneck -14.673 -2.46992 0.684055
upperneck 20.8951 -4.06843 1.97419
head 9.00375 -1.63834 0.0700894
rclavicle -1.99903e-014 -1.39149e-015
rhumerus -46.878 -2.19761 -86.8105
rradius 43.3374
rwrist 10.3429
rhand -6.64761 -29.6078
rfingers 7.12502
rthumb 19.2097 -58.6791
lclavicle -1.99903e-014 -1.39149e-015
lhumerus -39.5355 2.44957 87.3652
lradius 38.4011
lwrist -4.17857
lhand -10.2315 -28.2583
lfingers 7.12502
lthumb 15.7607 1.11998
rfemur 9.00298 -9.70006 20.9771
rtibia 1.59028e-014
rfoot -12.7389 -4.02651
rtoes 9.5872
lfemur 19.0945 -8.52763 -11.9489
ltibia -21.2041
lfoot -2.62925 19.8647
ltoes -3.23143
